<?xml version="1.0" standalone="no"?>
<!DOCTYPE svg PUBLIC "-//W3C//DTD SVG 20010904//EN"
 "http://www.w3.org/TR/2001/REC-SVG-20010904/DTD/svg10.dtd">
<svg version="1.0" xmlns="http://www.w3.org/2000/svg"
 width="512.000000pt" height="512.000000pt" viewBox="0 0 512.000000 512.000000"
 preserveAspectRatio="xMidYMid meet">
<metadata>
Created by potrace 1.11, written by Peter Selinger 2001-2013
</metadata>
<g transform="translate(0.000000,512.000000) scale(0.100000,-0.100000)"
fill="#000000" stroke="none">
<path d="M114 4513 c-5 -1 -31 -3 -59 -5 l-50 -4 1 -114 c1 -107 12 -289 19
-300 1 -3 6 -36 10 -75 4 -38 8 -72 10 -75 2 -4 6 -28 10 -54 9 -76 72 -350
106 -461 153 -501 381 -895 704 -1219 274 -274 599 -473 980 -601 94 -31 311
-91 366 -100 207 -35 259 -42 349 -50 122 -12 142 -13 210 -15 36 -1 73 -4 82
-6 15 -4 16 -45 17 -492 0 -268 0 -506 0 -530 l1 -43 188 143 c204 155 365
277 657 498 105 79 262 198 350 265 88 67 266 202 395 299 129 97 242 183 251
190 9 8 96 74 193 147 169 127 176 134 159 150 -14 13 -597 457 -813 619 -14
10 -115 87 -225 171 -110 84 -337 256 -505 383 -168 126 -337 255 -377 285
-112 87 -256 195 -267 203 -8 4 -11 -150 -9 -520 0 -326 -3 -529 -9 -533 -5
-3 -32 -5 -61 -3 -174 9 -276 15 -302 19 -16 2 -57 7 -90 10 -153 16 -326 48
-500 92 -652 166 -1139 505 -1441 1003 -52 85 -76 134 -134 265 -28 64 -67
183 -89 271 -18 70 -24 102 -36 174 -1 10 -14 15 -42 15 -22 1 -44 0 -49 -2z
m271 -978 c27 -38 53 -74 59 -80 6 -5 26 -29 45 -53 18 -24 72 -83 120 -131
453 -460 1113 -731 1941 -796 55 -5 315 -16 418 -19 51 -1 95 2 98 6 3 4 5
197 4 428 0 231 2 420 5 420 4 0 90 -64 193 -142 103 -78 250 -190 327 -248
77 -59 178 -136 225 -171 47 -35 89 -68 95 -72 11 -9 195 -148 579 -437 135
-102 245 -188 245 -191 1 -3 -159 -126 -353 -274 -195 -147 -365 -276 -378
-286 -29 -22 -202 -154 -615 -466 l-323 -244 0 429 0 428 -92 3 c-172 4 -308
10 -356 15 -26 3 -74 8 -107 11 -33 3 -82 10 -110 15 -27 6 -86 16 -130 24
-660 121 -1207 474 -1559 1006 -128 194 -193 321 -296 585 -28 72 -100 304
-100 323 0 9 13 -8 65 -83z"/>
</g>
</svg>
